# xmcd
#
# Track frame offsets:
#	150
#	16488
#	29993
#	45168
#	71788
#	87013
#	104138
#	118918
#	135938
#	158690
#	182768
#	206345
#
# Disc length: 2944
#
# Revision: 4
# Processed by: cddbd v1.5.1PL0 Copyright (c) Steve Scherf et al.
# Submitted via: CDex 1.40Beta3
# Normalized: r3:DSETVAR1,TDELIM( - )
#
DISCID=a20b7e0c
DTITLE=Various Artist - Essential Rock Disk 2
DYEAR=1900
DGENRE=Blues
TTITLE0=Elkie Brooks - Pearl's A Singer
TTITLE1=Gallagher and Lyle - I Wanna Stay With You
TTITLE2=10cc - The Things We Do For Love
TTITLE3=Rod Stewart - Every Picture Tells A Story
TTITLE4=Status Quo - The Wanderer
TTITLE5=Boomtown Rats - I Don't Like Mondays
TTITLE6=Gary Moore - Parisienne Walkways
TTITLE7=Elton John - Island Girl
TTITLE8=The Mission - Butterfly On A Wheel
TTITLE9=Tears For Fears - Woman In Chains
TTITLE10=The Scorpions - Wind Of Change
TTITLE11=The Wonder Stuff - The Size Of The Cow
EXTD=ID3G:   0
EXTT0=
EXTT1=
EXTT2=
EXTT3=
EXTT4=
EXTT5=
EXTT6=
EXTT7=
EXTT8=
EXTT9=
EXTT10=
EXTT11=
PLAYORDER=
